<svg width="500" height="100" viewBox="0 0 500 100" fill="none" xmlns="http://www.w3.org/2000/svg">
<g clip-path="url(#clip0_413_257)">
<path d="M107.91 98.31V0H147.76C154.02 0 159.71 1.47 164.84 4.42C169.96 7.37 174.04 11.47 177.08 16.71C180.12 21.95 181.64 28.04 181.64 34.97C181.64 41.9 180.12 47.87 177.08 53.16C174.04 58.45 169.96 62.57 164.84 65.52C159.71 68.47 154.03 69.94 147.77 69.94H127.37V98.31H107.92H107.91ZM127.36 52.25H145.45C148.53 52.25 151.34 51.57 153.88 50.21C156.42 48.85 158.44 46.89 159.93 44.31C161.43 41.74 162.17 38.62 162.17 34.97C162.17 31.32 161.42 28.21 159.93 25.63C158.43 23.06 156.41 21.09 153.88 19.73C151.34 18.37 148.53 17.69 145.45 17.69H127.36V52.24V52.25Z" fill="black"/>
<path d="M454 98.31V17.7H427.46V0H500V17.7H473.46V98.32H454V98.31Z" fill="black"/>
<path d="M309.85 80.62V17.7H329.53C330.24 15.58 331.11 13.51 332.24 11.59V0H267.51V17.7H290.4V80.62H258.26C257.53 80.62 256.9 80.46 256.36 80.13C255.81 79.8 255.36 79.36 255 78.8L246.29 63.07C251.19 60.17 255.13 56.21 258.12 51.2C261.11 46.19 262.61 40.41 262.61 33.85C262.61 27.29 261.09 21.21 258.05 16.15C255.01 11.09 250.93 7.14 245.81 4.28C240.69 1.43 235 0 228.74 0H186.17V98.31H205.62V67.69H226.7L237.45 87.63C239.26 90.81 241.74 93.39 244.86 95.35C247.99 97.32 251.46 98.3 255.27 98.3H327.71V80.6H309.85V80.62ZM240.92 42.56C239.42 45 237.4 46.84 234.87 48.11C232.33 49.37 229.52 50.01 226.44 50.01H205.63V17.7H226.44C229.52 17.7 232.31 18.33 234.8 19.6C237.29 20.86 239.31 22.71 240.85 25.15C242.39 27.59 243.16 30.49 243.16 33.86C243.16 37.23 242.41 40.13 240.92 42.57V42.56Z" fill="black"/>
<path d="M336.56 98.31H332.24V29.33C332.24 23.96 333.42 19.02 335.76 14.64C338.1 10.25 341.43 6.68 345.65 4.02C349.89 1.35 354.85 0 360.4 0C365.95 0 371.03 1.35 375.27 4.02C379.49 6.68 382.82 10.25 385.16 14.64C387.49 19.02 388.68 23.96 388.68 29.33V71.2C388.68 72.35 388.95 73.38 389.5 74.33C390.08 75.33 390.8 76.1 391.72 76.69C392.59 77.25 393.54 77.52 394.64 77.52C395.74 77.52 396.74 77.24 397.65 76.67C398.6 76.08 399.34 75.31 399.91 74.33C400.46 73.38 400.73 72.36 400.73 71.2V0H405.05V71.19C405.05 73.15 404.57 74.98 403.62 76.62C402.69 78.23 401.43 79.53 399.88 80.5C398.3 81.49 396.53 81.99 394.64 81.99C392.75 81.99 390.99 81.48 389.44 80.49C387.94 79.52 386.71 78.22 385.79 76.63C384.84 74.99 384.36 73.16 384.36 71.21V29.33C384.36 24.73 383.36 20.51 381.38 16.8C379.41 13.1 376.6 10.09 373.02 7.84C369.46 5.6 365.22 4.47 360.39 4.47C355.56 4.47 351.44 5.6 347.89 7.84C344.32 10.09 341.51 13.1 339.54 16.8C337.56 20.51 336.56 24.72 336.56 29.33V98.32V98.31ZM345.49 28.22C345.49 25.34 346.13 22.7 347.4 20.37C348.67 18.04 350.44 16.14 352.67 14.73C354.88 13.34 357.47 12.63 360.39 12.63C363.31 12.63 365.95 13.32 368.21 14.74C370.49 16.17 372.23 18.01 373.51 20.37C374.78 22.7 375.42 25.34 375.42 28.22V70.09C375.42 73.7 376.25 77.07 377.88 80.09C379.51 83.12 381.8 85.57 384.67 87.39C387.56 89.22 390.92 90.15 394.64 90.15C398.36 90.15 401.78 89.22 404.7 87.4C407.59 85.58 409.89 83.13 411.53 80.1C413.16 77.07 413.99 73.71 413.99 70.1V0H409.67V70.09C409.67 72.93 409.03 75.56 407.76 77.91C406.48 80.29 404.74 82.14 402.46 83.57C400.2 84.99 397.64 85.68 394.64 85.68C391.64 85.68 389.13 84.97 386.92 83.58C384.66 82.15 382.93 80.3 381.65 77.92C380.38 75.57 379.74 72.94 379.74 70.1V28.22C379.74 24.56 378.91 21.19 377.28 18.18C375.64 15.18 373.35 12.73 370.46 10.92C367.55 9.09 364.16 8.17 360.4 8.17C356.64 8.17 353.32 9.1 350.43 10.93C347.56 12.74 345.28 15.19 343.64 18.19C342 21.2 341.17 24.57 341.17 28.23V98.32H345.49V28.22ZM409.51 94.3C413.74 91.64 417.07 88.05 419.41 83.61C421.74 79.19 422.92 74.27 422.92 68.99V0H418.6V68.99C418.6 73.51 417.6 77.71 415.62 81.46C413.65 85.2 410.84 88.23 407.27 90.47C403.71 92.71 399.47 93.84 394.64 93.84C389.81 93.84 385.69 92.71 382.14 90.47C378.57 88.23 375.76 85.19 373.79 81.46C371.81 77.71 370.81 73.51 370.81 68.99V27.12C370.81 25.16 370.33 23.33 369.38 21.69C368.45 20.08 367.19 18.78 365.64 17.81C364.06 16.82 362.29 16.32 360.4 16.32C358.51 16.32 356.75 16.83 355.2 17.82C353.7 18.78 352.47 20.08 351.55 21.68C350.6 23.32 350.12 25.15 350.12 27.1V98.29H354.44V27.12C354.44 25.97 354.71 24.94 355.26 23.99C355.84 22.99 356.56 22.22 357.49 21.63C358.36 21.07 359.31 20.8 360.41 20.8C361.51 20.8 362.51 21.08 363.42 21.65C364.37 22.24 365.11 23.01 365.68 23.99C366.23 24.94 366.5 25.96 366.5 27.12V68.99C366.5 74.27 367.68 79.19 370.01 83.61C372.35 88.05 375.68 91.64 379.91 94.3C384.15 96.97 389.11 98.32 394.65 98.32C400.19 98.32 405.28 96.97 409.52 94.3H409.51Z" fill="#6ED3EF"/>
<path d="M59.71 0V60.81C59.71 64.74 58.89 68.32 57.26 71.55C55.63 74.78 53.31 77.38 50.32 79.35C47.33 81.32 43.79 82.3 39.71 82.3C35.63 82.3 31.93 81.32 28.9 79.35C25.86 77.38 23.53 74.79 21.9 71.55C20.27 68.32 19.45 64.74 19.45 60.81V0H0V59.55C0 67.88 1.7 75.07 5.1 81.11C8.5 87.15 13.17 91.81 19.11 95.08C25.05 98.36 31.87 100 39.58 100C47.29 100 54.11 98.36 60.05 95.08C65.99 91.8 70.66 87.14 74.06 81.11C77.46 75.07 79.16 67.89 79.16 59.55V0H59.71Z" fill="#D2232A"/>
<path d="M103.38 93.03C100.89 96.24 97.0599 98.31 92.7699 98.31C85.2699 98.31 79.1699 92.01 79.1699 84.27C79.1699 76.53 85.2699 70.23 92.7699 70.23C97.0599 70.23 100.89 72.3 103.38 75.51L99.8399 78.43C98.1799 76.29 95.6299 74.91 92.7699 74.91C87.7699 74.91 83.6999 79.11 83.6999 84.27C83.6999 89.43 87.7699 93.63 92.7699 93.63C95.6299 93.63 98.1799 92.25 99.8399 90.11L103.38 93.03ZM92.7699 79.59C90.2699 79.59 88.2399 81.69 88.2399 84.27C88.2399 86.85 90.2699 88.95 92.7699 88.95C95.2699 88.95 97.2999 86.85 97.2999 84.27C97.2999 81.69 95.2699 79.59 92.7699 79.59Z" fill="black"/>
</g>
<defs>
<clipPath id="clip0_413_257">
<rect width="500" height="100" fill="white"/>
</clipPath>
</defs>
</svg>
