<svg width="76" height="63" viewBox="0 0 76 63" fill="none" xmlns="http://www.w3.org/2000/svg">
<path d="M9.19098 62.9613L0.0328087 62.9355L0.0094162 52.7294C-0.0139763 47.1167 0.00941621 42.4717 0.044505 42.4072C0.0795937 42.3297 2.44224 42.2781 5.9979 42.291C9.22607 42.291 11.9864 42.2523 12.1384 42.2136L12.3958 42.1491L11.9864 40.962C11.4717 39.4653 10.8752 36.859 10.6062 34.9365C10.4425 33.7881 10.3957 32.743 10.3957 30.356C10.4074 27.6077 10.4425 27.0529 10.7115 25.3884C11.6355 19.6983 13.7174 14.8468 17.1093 10.4857C21.1913 5.26005 27.0979 1.59566 33.3087 0.434405C37.9638 -0.430082 42.6306 -0.00429022 47.1804 1.71178C49.7536 2.67949 53.1221 4.75684 55.3561 6.74387C59.9644 10.834 63.4031 16.7951 64.8184 23.1304C65.8009 27.4915 65.8944 32.1107 65.0991 36.4848C64.795 38.2009 64.1868 40.5363 63.7891 41.5427L63.5552 42.162L69.7776 42.1878L76 42.2265V63H47.1687C31.3086 63 14.2204 62.9871 9.19098 62.9613ZM54.9117 58.9743C55.8941 58.4582 56.4673 57.8905 56.8649 57.0131C57.4146 55.8132 57.4848 55.1551 57.5667 50.8069C57.6018 48.5747 57.6837 46.678 57.7304 46.5877C57.7772 46.4973 57.9995 46.3941 58.2217 46.3425C59.0989 46.1619 58.5492 46.0328 56.9351 46.0328C55.2158 46.0328 54.8298 46.1361 55.7304 46.3683C56.0813 46.4457 56.2684 46.5748 56.3737 46.807C56.5725 47.2328 56.5842 54.0971 56.3971 55.3099C56.0462 57.5937 54.9117 58.7421 53.0169 58.7163C51.6601 58.7034 50.7127 58.0969 50.163 56.8841C49.6834 55.8519 49.6249 55.1422 49.6249 50.8714C49.6249 46.9748 49.6366 46.7941 49.8589 46.549C49.9875 46.407 50.2215 46.2909 50.3852 46.2909C50.5489 46.2909 50.6776 46.2393 50.6776 46.1619C50.6776 46.0845 49.9524 46.0328 48.7477 46.0328C46.9231 46.0328 46.2447 46.1748 47.2974 46.3296C48.1863 46.4586 48.1512 46.278 48.2331 51.2972C48.3033 56.2389 48.315 56.3164 49.0986 57.5808C49.5899 58.3679 50.1045 58.7679 51.1338 59.1679C51.7888 59.413 52.0812 59.4517 53.0285 59.413C53.9759 59.3743 54.2684 59.2969 54.9117 58.9743ZM71.0525 59.3227C72.4443 59.1034 72.5262 59.0001 72.7835 57.1421C72.959 55.839 72.7484 55.6712 72.4443 56.8712C72.1285 58.0711 71.1694 58.6131 69.3331 58.6131C67.7424 58.6002 66.5377 58.0969 65.4617 56.9744C64.6897 56.1744 64.2219 55.3745 63.8827 54.2906C63.5201 53.1423 63.5201 51.0004 63.8827 49.7747C64.5377 47.5425 66.0231 46.4973 68.5144 46.4973C70.9589 46.4973 72.421 47.4651 72.4326 49.1037C72.4326 49.3231 72.4794 49.5166 72.5379 49.5166C72.7017 49.5166 72.7835 48.8069 72.7835 47.5167V46.3167L72.0584 46.1748C69.4501 45.6845 67.6255 45.6716 66.2219 46.149C63.8827 46.9618 62.3622 49.1682 62.175 52.0455C62.0931 53.2455 62.3505 54.7551 62.7832 55.7228C63.6721 57.6454 65.4383 58.9743 67.567 59.3227C68.4442 59.4646 70.1519 59.4646 71.0525 59.3227ZM14.6531 53.1294V46.9231L14.9455 46.6135C15.0976 46.4328 15.3315 46.2909 15.4602 46.2909C15.5888 46.2909 15.7292 46.2393 15.7643 46.1619C15.8111 46.0716 15.2029 46.0328 14.0215 46.0328C12.887 46.0328 12.1969 46.0845 12.1969 46.1619C12.1969 46.2393 12.349 46.2909 12.5361 46.2909C13.1209 46.2909 13.4484 46.4973 13.5888 46.9618C13.7057 47.3747 13.9163 56.8712 13.811 56.7422C11.963 54.51 10.4308 52.6778 8.15001 49.9682C6.59441 48.1231 5.17916 46.4199 5.00372 46.1877C4.82827 45.9554 4.61774 45.7877 4.54756 45.8135C4.45399 45.8522 4.40721 47.6328 4.36042 52.0455C4.31364 56.7293 4.26685 58.2905 4.14989 58.5098C4.05632 58.7034 3.84579 58.8324 3.54169 58.884C2.5475 59.0647 3.15571 59.1937 4.94524 59.1937C6.73476 59.1937 7.37806 59.0518 6.32539 58.8969C5.70549 58.8066 5.45987 58.484 5.3663 57.6841C5.33121 57.3357 5.27273 55.4132 5.22595 53.3874C5.19086 51.3617 5.13238 49.5553 5.12068 49.3747C5.02711 48.6263 5.24934 48.7166 6.12656 49.8005C8.93366 53.2842 14.2438 59.3227 14.5011 59.3227C14.618 59.3227 14.6531 58.0195 14.6531 53.1294ZM26.7354 59.1679C27.0161 58.9227 27.3319 56.8712 27.0863 56.8712C27.0278 56.8712 26.9108 57.1421 26.8172 57.4905C26.6886 57.9421 26.5482 58.1486 26.2909 58.2905C25.8815 58.5098 24.5833 58.6131 23.8347 58.484C22.899 58.3292 22.8639 58.1486 22.9341 53.9164L22.9575 52.4584L24.209 52.5359C24.8874 52.5875 25.5423 52.6778 25.6593 52.7552C25.9283 52.91 26.1155 53.2842 26.1155 53.6326C26.1155 53.7874 26.1622 53.9035 26.209 53.9035C26.326 53.9035 26.595 51.581 26.5014 51.4133C26.4664 51.3488 26.3377 51.4133 26.209 51.5423C26.0102 51.7359 25.7295 51.7875 24.5131 51.8133C23.6008 51.8391 23.016 51.8133 22.9692 51.7359C22.9107 51.6327 22.8873 47.1425 22.9458 46.7812C22.9692 46.6264 25.4956 46.7812 25.8464 46.9618C26.0921 47.0909 26.209 47.2715 26.3026 47.7102C26.3728 48.0199 26.4547 48.2134 26.5014 48.1489C26.5599 48.0199 26.8289 45.9812 26.7822 45.9683C26.326 45.9296 20.127 46.1232 20.2089 46.1748C20.279 46.2264 20.513 46.2909 20.7469 46.3425C21.5188 46.4973 21.4954 46.2651 21.4954 52.5359C21.4954 58.6776 21.4954 58.7292 20.8755 58.884C20.1504 59.0776 20.4311 59.1292 22.4311 59.1937C26.443 59.3356 26.5365 59.3227 26.7354 59.1679ZM39.0164 59.1163C41.8118 58.3163 43.5312 55.7615 43.5429 52.4197C43.5429 49.4005 42.0341 47.1941 39.3907 46.3425C38.8176 46.1619 38.0456 46.1103 35.1567 46.0715C31.7531 46.007 30.9811 46.0845 32.1039 46.3683C32.4548 46.4457 32.6537 46.5877 32.7589 46.807C32.8642 47.0522 32.8993 48.3682 32.8759 52.6778C32.8408 57.7486 32.8174 58.2647 32.6303 58.5873C32.5016 58.8066 32.3262 58.9356 32.139 58.9356C31.9753 58.9356 31.8466 58.9872 31.8466 59.0647C31.8466 59.1808 32.9344 59.2453 36.5134 59.2969C37.8351 59.3098 38.4901 59.2711 39.0164 59.1163ZM15.39 41.9685C15.3783 41.8265 15.3081 41.4524 15.2262 41.1298C15.0274 40.3427 15.0625 39.0782 15.2847 38.4847C15.4368 38.0976 15.4719 37.4525 15.4719 35.1429C15.4719 33.0914 15.507 32.2398 15.6122 32.1236C15.6941 32.0333 16.0918 31.9688 16.583 31.9688C17.0743 31.9688 17.4719 31.9043 17.5538 31.814C17.7409 31.6075 17.7292 31.1946 17.5538 31.1817C17.4719 31.1817 17.0041 31.1559 16.5245 31.1559C15.6824 31.1301 15.6473 31.1172 15.4719 30.743C15.3432 30.4592 15.2847 29.814 15.2613 28.2915L15.2262 26.2271L14.4075 25.311C13.7174 24.511 13.6005 24.3175 13.6005 23.9175C13.6005 23.6594 13.6239 23.453 13.6589 23.453C13.6823 23.453 13.811 23.711 13.9397 24.0207C14.1736 24.6013 14.8286 25.3755 15.0976 25.3884C15.3432 25.3884 15.2496 25.0013 14.8988 24.4981C14.7233 24.24 14.5245 23.8917 14.4777 23.711C14.4309 23.5304 14.2555 23.2336 14.1034 23.0401C13.7759 22.653 13.811 22.2917 14.1736 22.2917C14.3139 22.2917 14.5245 22.0724 14.735 21.7111C14.9104 21.4014 15.0976 21.1434 15.1561 21.1305C15.3081 21.1305 15.2379 21.8272 15.0625 22.0853C14.9689 22.2272 14.8871 22.382 14.8871 22.4337C14.8871 22.5756 15.5771 22.8078 15.9982 22.8078C16.4193 22.8078 16.5245 22.6917 16.7585 22.0337C16.8403 21.7885 17.0392 21.2724 17.2029 20.8853L17.4953 20.1886L17.2263 19.9434C17.086 19.8144 16.8988 19.7112 16.8052 19.7112C16.6181 19.7112 16.583 19.3757 16.7585 19.2596C16.8169 19.2209 16.8403 19.1047 16.7935 19.0015C16.7585 18.8854 16.8052 18.808 16.9105 18.808C17.0158 18.808 17.1795 18.7176 17.2731 18.6015C17.4251 18.4338 17.4602 18.0467 17.4602 16.4468C17.4602 14.6017 17.5538 13.9694 17.776 14.2146C17.9047 14.3436 17.8696 18.4338 17.7292 19.8402C17.6708 20.4466 17.507 21.2982 17.3667 21.7369C17.0392 22.7433 17.0509 22.782 17.4018 22.9369C17.5655 23.0014 17.7409 23.2078 17.8111 23.3756C17.8696 23.5433 17.9164 25.04 17.9281 26.6916C17.9398 30.2527 17.9866 31.7882 18.0801 32.2269C18.1152 32.4075 18.1737 33.5817 18.1971 34.8461C18.2439 36.588 18.2205 37.1299 18.1035 37.1299C17.8111 37.1299 17.7059 36.4719 17.7059 34.4849C17.6942 33.3752 17.6708 32.4204 17.6357 32.3559C17.5655 32.2398 16.1619 32.343 16.0333 32.472C15.9397 32.5623 15.8812 42.0072 15.9748 42.1104C16.0333 42.1878 16.9339 42.2136 17.6708 42.1749C17.9281 42.162 17.9281 42.162 17.9281 39.8395C17.9281 38.0718 17.9632 37.517 18.0801 37.517C18.2322 37.517 18.2439 37.7235 18.2673 40.5105L18.279 42.1362H18.8053L19.3316 42.1233L19.3082 36.4977L19.2731 30.8721L19.0158 30.8334C18.817 30.7947 18.7585 30.6785 18.7 30.1882C18.6649 29.8528 18.5948 29.4141 18.548 29.1947C18.5129 28.9883 18.4661 25.2594 18.4661 20.924C18.4544 14.0985 18.4778 13.0146 18.6299 12.8082C18.7819 12.6017 18.817 13.0662 18.8638 17.2596C18.9223 22.3562 18.8755 21.995 19.624 22.3175L19.9749 22.4595L19.4837 22.5498C18.934 22.6401 18.8053 22.7304 18.9223 22.924C18.969 23.0143 19.5889 23.0659 20.5831 23.0659C22.7235 23.0659 22.6066 23.2078 22.6066 20.6273C22.6066 18.8338 22.63 18.5628 22.8405 18.1886C23.2265 17.4919 24.1388 16.5629 24.7704 16.2274C25.554 15.8016 26.6652 15.8016 27.3202 16.2274C27.6828 16.4597 27.7529 16.4726 27.7529 16.3048C27.7529 16.2016 27.519 15.9565 27.25 15.7758C26.6886 15.4145 25.7295 15.3371 24.9107 15.5952C23.9867 15.879 23.016 16.8596 22.5247 18.008C22.2674 18.6144 21.9048 18.9112 21.9048 18.5241C21.9048 18.0983 23.0744 16.3435 23.6592 15.9048C24.2558 15.4403 25.4488 15.0662 26.2909 15.0662C26.9693 15.0662 27.0746 15.1049 27.6477 15.5823C28.174 16.021 28.3611 16.0984 28.829 16.0984C29.4255 16.0984 29.4021 16.1242 30.1039 14.9242C30.291 14.5888 30.7238 14.0081 31.063 13.634C31.6829 12.9243 31.8232 12.8469 34.4783 11.7243C34.9929 11.505 35.7064 11.0792 36.0807 10.7695C36.7824 10.1889 37.7766 8.88573 37.8819 8.39542C37.9872 7.96963 38.1275 8.03414 38.2211 8.51155C38.3731 9.29862 39.1451 10.5115 39.8001 10.976C40.0223 11.1437 41.0165 11.6727 41.999 12.163C43.8821 13.092 44.3265 13.4662 44.6774 14.3952C44.8529 14.8726 44.771 15.1565 44.5488 14.7565C43.847 13.4662 43.1218 12.8856 41.344 12.2146C40.1393 11.7501 39.3907 11.1953 38.4316 10.047L37.9404 9.45345L37.2035 10.2405C36.7941 10.6792 36.1742 11.2082 35.8234 11.4018C35.2035 11.7631 34.8993 11.905 33.0396 12.6791C31.9285 13.1307 31.0981 13.9694 30.5133 15.1952C30.139 15.9694 30.1039 16.1113 30.2676 16.1758C30.4782 16.2661 30.6302 16.0855 31.1449 15.0662C31.7765 13.8017 31.9753 13.634 34.0221 12.7437C35.8351 11.9566 36.2444 11.7243 37.1918 10.9115C37.5895 10.576 37.9521 10.2921 37.9755 10.2921C38.0106 10.2921 38.3264 10.6147 38.6772 10.9889C39.3673 11.7501 40.1861 12.2534 41.5311 12.7566C42.9464 13.2727 44.0575 14.4339 44.4786 15.8274C44.6774 16.4726 45.1102 16.8467 45.4845 16.6919C45.695 16.6016 45.6833 16.5758 45.3792 16.3306C45.0517 16.0726 44.6423 15.221 44.7827 15.0791C44.8178 15.0404 44.9464 15.1436 45.0517 15.3242C45.3558 15.8532 45.695 16.1371 46.233 16.3048L46.7477 16.4726L47.3325 15.9177C48.315 15.0016 49.7185 14.3565 50.4437 14.4984C51.4846 14.692 52.8648 15.3887 53.2859 15.9177C53.59 16.3048 54.1865 17.5177 54.1865 17.7499C54.1865 18.1112 53.9409 17.8532 53.59 17.1177C53.3794 16.6919 53.0169 16.15 52.7712 15.9177C52.2683 15.4532 50.9466 14.9371 50.2331 14.9371C49.4027 14.9371 48.4553 15.3371 47.9056 15.9177C47.3559 16.4855 47.2974 16.6661 47.6015 16.7951C47.7301 16.8596 47.9524 16.7177 48.2682 16.3693C48.9349 15.6597 49.4495 15.4145 50.2098 15.4145C51.0168 15.4145 52.0929 15.9177 52.5841 16.5242C53.3794 17.5177 53.8356 19.2209 53.8356 21.2982C53.8356 23.1175 53.8005 23.0788 55.4497 23.053C56.1982 23.0401 56.8766 23.0143 56.9585 22.9756C57.1573 22.8852 57.1573 22.4207 56.9702 22.4078C56.8883 22.4078 56.3386 22.3949 55.7421 22.3949C54.5959 22.382 54.3502 22.3046 54.4555 21.995C54.514 21.8272 54.5959 21.8143 54.9117 21.9175C55.5316 22.1111 56.5959 22.0595 56.8064 21.8272C56.9702 21.6595 56.9936 21.066 57.017 17.6725C57.0404 15.492 57.0521 13.4404 57.0404 13.1049C57.0404 12.7566 57.0755 12.4856 57.1105 12.4985C57.1456 12.4985 57.403 12.834 57.6954 13.234L58.2217 13.9694L58.2802 15.9952C58.3504 18.3306 58.3854 18.4209 59.251 18.4596C59.8826 18.4854 60.0697 18.3306 60.0697 17.7757C60.0697 17.0145 60.3972 17.6854 60.5376 18.7306C60.6545 19.6079 60.6896 19.7112 60.9235 19.7112C61.1107 19.7112 61.2276 19.866 61.4265 20.3692C61.7189 21.1563 61.7423 21.5176 61.4966 21.5176C61.2861 21.5176 61.2744 21.6982 61.4499 22.0466C61.637 22.4337 61.2861 23.5046 60.9118 23.6852C60.6896 23.8013 60.6194 23.9304 60.6194 24.2271C60.6194 24.782 60.9352 24.7303 61.52 24.0465C61.9645 23.5304 61.9996 23.4401 61.9411 22.9498C61.8475 22.2014 62.0698 22.2917 62.2452 23.0659C62.444 23.9433 62.3037 24.3175 61.3563 25.3884L60.6194 26.24L60.6545 31.8527C60.6896 37.4396 60.6896 37.4654 60.9703 37.9944C61.2393 38.5363 61.2393 38.6008 60.9235 39.5169C60.8183 39.8266 60.7481 40.4717 60.7364 41.104V42.1749L62.6312 42.0975L62.9821 41.1298C65.0172 35.4784 65.2979 28.2915 63.7189 22.3304C60.6662 10.7566 51.6367 2.40853 40.7592 1.11825C38.9346 0.911808 35.1099 1.04084 33.4841 1.3634C28.8875 2.31821 24.7002 4.38266 21.2615 7.42771C17.9983 10.3308 15.2496 14.2404 13.5303 18.4338C11.0507 24.5239 10.536 31.3882 12.0683 37.9299C12.4308 39.4653 13.1794 41.8265 13.3899 42.1362C13.4718 42.2394 13.811 42.2781 14.466 42.2652C15.3315 42.2265 15.4134 42.2007 15.39 41.9685ZM32.0689 41.9427C32.5718 41.6201 32.5016 41.2717 31.87 40.9104C31.5893 40.7427 31.2852 40.5234 31.1916 40.4201C31.0981 40.3169 30.7589 40.2008 30.4431 40.1492C29.8349 40.0589 29.6828 39.8266 29.9986 39.4782C30.1975 39.2589 30.4548 39.2847 30.794 39.5815C31.4256 40.1234 31.7063 39.7621 31.2618 38.9621C30.9811 38.4589 30.9694 38.2912 31.2033 38.2912C31.5893 38.2912 31.6244 37.8138 31.332 36.7815C31.1682 36.2267 31.0045 35.5687 30.9577 35.3235C30.8291 34.6139 30.3144 33.3881 30.139 33.3881C29.8934 33.3881 29.3904 34.6139 28.9693 36.2267C28.7588 37.0396 28.4781 38.0589 28.3378 38.4847C27.9869 39.5556 28.0453 40.704 28.4898 41.5556L28.8173 42.162H30.2676C31.4256 42.162 31.7765 42.1233 32.0689 41.9427ZM35.1216 41.9298C35.1216 41.8007 34.9578 41.0008 34.759 40.1492C34.5602 39.3105 34.3496 38.3299 34.3028 37.9686C33.9987 35.93 33.9637 35.6461 34.0689 35.53C34.2795 35.2977 34.2444 35.1558 35.2385 40.4201L35.5543 42.0975L36.0573 42.1362C36.4316 42.162 36.5368 42.1362 36.5017 42.0072C36.455 41.8652 36.0222 40.2008 35.4608 37.9686C35.3906 37.6847 35.2853 37.3106 35.2268 37.1299C34.7473 35.6203 34.0689 31.672 34.2444 31.4785C34.3496 31.3624 34.6537 31.8269 34.6537 32.1107C34.6537 32.472 35.566 36.7428 35.8351 37.6331C36.221 38.9363 36.5368 39.7492 36.724 39.9943C36.8409 40.1363 36.876 40.3298 36.8292 40.5492C36.7707 40.8072 36.8409 40.9749 37.1684 41.3491C37.4024 41.6072 37.5544 41.904 37.531 41.9943C37.4842 42.1233 37.8819 42.162 39.5662 42.162C40.7241 42.162 41.6715 42.1362 41.6715 42.1104C41.6715 42.0072 39.9872 41.0395 39.5428 40.8846C39.0983 40.7169 38.7708 40.4072 38.9112 40.2653C38.9463 40.2137 39.227 40.304 39.5077 40.4588C39.8001 40.6137 40.2211 40.7427 40.4551 40.7427C40.7709 40.7427 40.8761 40.8072 40.958 41.0524C41.0984 41.4395 41.5077 41.5556 41.8586 41.2975C42.0107 41.1943 42.2095 41.1298 42.3031 41.1685C42.5253 41.2717 42.7475 40.9621 42.654 40.6911C42.5955 40.5105 42.4434 40.4846 41.9288 40.5105C41.1569 40.5621 40.9463 40.304 41.6715 40.1879C42.3031 40.0976 42.4083 39.9814 42.7125 39.0653L42.9698 38.2912L42.7242 37.9041C42.3733 37.3622 41.9054 37.3751 41.5311 37.9428C41.3791 38.1621 41.2036 38.4718 41.1685 38.6008C41.0516 38.9363 40.9112 38.7428 40.9112 38.2525C40.8995 38.0202 40.8644 37.7105 40.8177 37.5686C40.7475 37.3364 40.806 37.246 41.1452 37.0138C41.6481 36.6912 41.882 36.6783 42.151 36.9493C42.268 37.0654 42.4434 37.1299 42.5487 37.0912C42.7943 36.9751 42.7943 35.6848 42.5487 35.4526C42.385 35.3106 42.385 35.259 42.5604 34.9623C42.6774 34.7687 42.7241 34.5107 42.6774 34.2655C42.6423 34.0591 42.6423 33.5429 42.6891 33.1172C42.7592 32.343 42.7592 32.343 43.1218 32.3817C43.4376 32.4204 43.4961 32.4849 43.5429 32.872C43.6248 33.4268 43.7417 33.6462 43.9523 33.6462C44.1979 33.6462 44.2681 34.0462 44.0575 34.3945C43.8704 34.7171 43.8704 34.7816 44.1394 36.059C44.2564 36.6396 44.2447 36.7815 44.0809 37.0654C43.8587 37.4396 43.8002 38.3686 43.9873 38.575C44.2213 38.8331 44.1511 39.4911 43.7768 40.6266C43.3207 42.0459 43.3207 42.1878 43.8002 42.1362C44.1511 42.0975 44.1745 42.0459 44.4903 41.0008C44.6774 40.3943 44.8295 39.6718 44.8295 39.375C44.8295 39.0911 44.9114 38.7428 45.0049 38.6008C45.0985 38.4718 45.1804 38.1105 45.1804 37.8267C45.1804 37.4138 45.1219 37.246 44.923 37.0912L44.654 36.8977L44.9464 36.7686C45.1102 36.6912 45.6599 36.5364 46.1745 36.4203C46.6892 36.3041 47.3091 36.1493 47.5547 36.059C47.9056 35.9558 48.0576 35.9558 48.2448 36.0848C48.5723 36.3041 49.3793 36.3687 49.6717 36.2009C49.8121 36.1235 50.1045 35.8913 50.3267 35.6848C50.584 35.4526 50.8647 35.3235 51.1221 35.3235C51.3326 35.3235 51.7186 35.2074 51.9759 35.0655C52.4671 34.7816 52.666 34.8074 52.666 35.1687C52.6543 35.53 52.3736 35.8396 52.1162 35.7622C51.9291 35.6977 51.8121 35.8138 51.5665 36.2912C51.2039 37.0267 51.1688 37.388 51.4846 37.388C51.6835 37.388 51.9525 37.8396 51.8238 37.9557C51.6952 38.0847 50.9115 38.1492 50.9115 38.0331C50.9115 37.8396 50.4905 37.8783 50.3267 38.0976C50.1747 38.3041 50.2565 38.7041 50.5022 38.9363C50.7244 39.1428 51.0285 38.8976 51.0285 38.5363C51.0285 38.2267 51.1688 38.2267 51.3443 38.5363C51.4613 38.7557 51.4379 38.9234 51.1805 39.5427C51.0051 39.9556 50.7829 40.7169 50.6659 41.2201L50.4788 42.162H50.7946C51.1688 42.162 51.2858 41.9298 51.1922 41.4136C51.1455 41.1556 51.2741 40.6653 51.6016 39.7879C51.8706 39.0911 52.0812 38.4718 52.0812 38.4073C52.0812 38.1492 53.1338 35.8654 53.5198 35.2719C54.0227 34.5107 53.9876 34.3687 53.0753 33.6978C52.5373 33.3107 52.3619 33.2462 52.0461 33.3236C51.8472 33.3623 51.4379 33.4397 51.1455 33.4655C50.853 33.5042 50.4671 33.6075 50.2682 33.7107C50.0811 33.8139 49.777 33.9171 49.6132 33.9558C49.4144 34.0075 49.2741 34.1365 49.2273 34.33C49.1688 34.6139 49.1337 34.6268 47.9641 34.5752C47.0986 34.5365 46.6892 34.459 46.502 34.3042C46.2096 34.072 45.7886 33.1817 45.4026 32.0333C44.8178 30.2785 43.4727 28.2786 42.4434 27.6206C42.1043 27.4012 41.6715 27.4141 41.5896 27.6464C41.5077 27.9173 41.882 28.356 42.1978 28.356C42.3265 28.356 42.5253 28.4334 42.6306 28.5238C42.9932 28.8205 44.3733 30.7301 44.6073 31.2075C44.8763 31.8011 44.8763 31.8398 44.654 31.8398C44.5488 31.8398 44.4084 31.6849 44.3382 31.4914C44.0926 30.8592 43.7651 30.4205 43.1686 29.8915C42.7242 29.5044 42.4785 29.3883 42.1393 29.3883C41.8352 29.3883 41.6481 29.3108 41.5662 29.1689C41.4142 28.8463 40.9112 29.1302 40.6071 29.6979C40.4785 29.956 40.2796 30.1882 40.1627 30.2269C40.0457 30.2656 39.8469 30.4721 39.7065 30.6785C39.3322 31.2204 38.572 31.6333 37.9053 31.6204C37.2854 31.6075 36.2912 31.143 36.2912 30.8592C36.2912 30.6269 36.5134 30.6269 36.7474 30.8592C36.8526 30.9624 37.2386 31.0656 37.6363 31.0914C38.2679 31.1301 38.3381 31.1043 38.3381 30.8721C38.3381 30.6527 38.2445 30.6011 37.6246 30.5495C37.0047 30.4979 36.8409 30.4205 36.4199 30.0076C36.1625 29.7366 35.8584 29.5173 35.7649 29.5173C35.6713 29.5173 35.5426 29.4012 35.4725 29.2592C35.3204 28.9367 34.8877 28.9108 34.8877 29.2334C34.8877 29.5689 35.2619 31.1688 35.8117 33.1946C36.0924 34.1881 36.4433 35.4784 36.5953 36.0719L36.8877 37.1299H37.3556C37.8702 37.1299 38.6305 37.4267 38.6305 37.6331C38.6305 37.7106 38.4433 37.8525 38.2211 37.9557C37.8468 38.1363 37.8117 38.2009 37.8117 38.6654C37.8117 39.2073 37.7065 39.3234 37.4842 39.0395C37.2503 38.7041 36.4199 36.7816 36.1859 36.0332C35.3438 33.2075 34.8526 31.2075 34.5719 29.4141C34.5134 29.027 34.4666 28.9883 34.2093 29.0399C34.0455 29.0786 33.6712 28.9754 33.3321 28.8076C32.642 28.4463 32.4314 28.5109 31.8466 29.2592C31.4607 29.7495 30.794 31.2979 30.794 31.6979C30.794 31.943 31.3905 34.0978 31.7531 35.1687C31.9753 35.8267 31.9987 35.8525 32.3262 35.7751C32.6654 35.6848 32.6771 35.6977 32.6537 36.188C32.6303 36.4977 32.7005 36.8203 32.8174 37.0009C32.9812 37.2719 32.9812 37.3493 32.8408 37.7493C32.5952 38.3815 32.6069 38.4976 33.1566 39.9814C33.8584 41.9298 34.0104 42.162 34.6303 42.162C35.028 42.162 35.1216 42.1233 35.1216 41.9298ZM57.5199 41.504C57.6837 40.9621 57.7071 40.5234 57.6486 38.8331C57.6135 37.7234 57.5433 36.4848 57.5082 36.0848C57.4614 35.659 57.4848 35.2461 57.555 35.1171C57.6369 34.9493 57.6252 34.7816 57.4965 34.5107C57.403 34.3042 57.3328 33.8655 57.3445 33.53C57.3796 32.7043 57.3679 32.6139 57.169 32.6139C57.0755 32.6139 56.9819 32.6914 56.9702 32.7817C56.9585 32.8591 56.9468 35.0139 56.9468 37.5428C56.9351 41.7749 56.9468 42.162 57.1339 42.162C57.2626 42.162 57.3913 41.9427 57.5199 41.504ZM60.3855 37.8138C60.3855 33.1043 60.327 32.5494 59.8475 32.3559C59.4147 32.1623 58.4439 32.2011 58.2919 32.3946C58.21 32.5236 58.1632 34.0462 58.1632 37.3622L58.1749 42.162H60.3855V37.8138ZM49.7653 41.7233C50.0928 41.5556 50.2565 40.8072 50.0928 40.175C49.9407 39.5815 48.6308 37.7364 48.4085 37.8138C48.1746 37.9041 48.198 38.2912 48.4904 38.8718C48.6658 39.2073 48.736 39.4782 48.6775 39.5298C48.5723 39.5944 47.8939 39.3879 47.0869 39.0524C46.9348 38.9879 46.6658 38.975 46.4903 39.0137C46.2681 39.0653 46.1161 39.0266 46.0108 38.8847C45.9172 38.7686 45.7535 38.6783 45.6248 38.6783C45.4377 38.6783 45.4026 38.7428 45.4611 38.975C45.8003 40.433 45.812 40.4588 46.1979 40.6653C46.6307 40.8846 46.7126 41.1298 46.3617 41.1298C45.9874 41.1298 45.9757 41.3491 46.3149 41.6459C46.619 41.9169 46.736 41.9298 48.1044 41.8781C48.9115 41.8394 49.66 41.7749 49.7653 41.7233ZM47.0167 38.0331C47.0635 37.8396 47.1453 37.8009 47.4143 37.8654C47.7301 37.9299 47.7535 37.9041 47.7535 37.5557C47.7535 37.0912 47.5664 36.8719 47.1453 36.8719C46.7477 36.8719 46.5488 37.2331 46.6307 37.8138C46.6892 38.3299 46.6775 38.2912 46.8295 38.2912C46.8997 38.2912 46.9816 38.175 47.0167 38.0331ZM50.8881 36.5493C51.0753 36.1106 51.0636 35.9687 50.8647 35.9687C50.701 35.9687 50.3267 36.4977 50.3267 36.7428C50.3267 37.0138 50.7595 36.859 50.8881 36.5493ZM20.8054 32.8591C20.9223 32.6398 20.6533 32.3946 20.4896 32.5752C20.3492 32.7301 20.4428 33.001 20.6182 33.001C20.6767 33.001 20.7586 32.9365 20.8054 32.8591ZM56.4088 32.1107C56.4088 31.814 55.8824 31.3237 55.5783 31.3237C55.2158 31.3237 55.321 31.6849 55.7889 32.0333C56.3152 32.4204 56.4088 32.4333 56.4088 32.1107ZM21.2732 30.9624C21.1095 30.2527 21.203 29.4657 21.4487 29.2334C21.589 29.1044 21.7645 29.0012 21.858 29.0012C21.9984 29.0012 23.5891 27.5819 23.8113 27.2593C23.8581 27.1948 23.8698 26.8206 23.8464 26.4464C23.8113 25.8013 23.7645 25.6981 23.168 25.0529C22.5832 24.3949 22.4779 24.3304 21.8697 24.2658C21.4954 24.2271 21.1679 24.1368 21.1329 24.0852C21.0159 23.8659 20.6065 23.9691 19.7995 24.4207C18.9457 24.8981 18.8053 25.1174 18.8872 25.8529C18.9457 26.3948 19.2615 26.3948 19.4954 25.84C19.7059 25.3626 20.0217 25.2465 20.2673 25.5819C20.4662 25.84 20.3024 26.2787 19.9749 26.369C19.6708 26.4464 19.3901 27.0528 19.4954 27.4141C19.5305 27.5432 19.4603 27.7883 19.3433 27.956C19.1679 28.2141 19.1445 28.3302 19.2498 28.5754C19.4018 28.9367 19.6825 28.9496 20.0334 28.6141C20.2907 28.3689 20.7352 28.2657 20.8872 28.4334C21.0042 28.5625 20.8404 28.8721 20.6533 28.8721C20.2907 28.8721 19.6942 29.4012 19.5656 29.8269C19.4018 30.3689 19.472 30.5495 20.01 30.9366C20.2439 31.1043 20.5597 31.3882 20.7118 31.5688L20.9808 31.8785L21.1679 31.5946C21.2849 31.414 21.32 31.1817 21.2732 30.9624ZM60.0112 31.5559C60.1282 31.3882 60.175 31.014 60.175 30.2656C60.1516 26.5367 60.0697 23.6078 59.9995 23.4917C59.941 23.3885 59.6603 23.3239 59.3445 23.3239C58.865 23.3239 58.7246 23.3885 58.4322 23.7239C58.0229 24.1755 57.9644 24.64 57.9293 28.0722C57.9176 30.1495 58.0579 31.3882 58.3387 31.6075C58.5375 31.7753 59.8826 31.7237 60.0112 31.5559ZM57.3445 31.3108C57.4263 31.1688 57.4497 30.9624 57.4146 30.8592C57.3211 30.5753 57.0287 30.6527 56.9702 30.9753C56.8649 31.5688 57.1222 31.7882 57.3445 31.3108ZM54.7245 31.0011C54.9117 30.7689 55.1222 30.6785 55.4146 30.6785C55.9877 30.6785 56.4439 30.3431 56.9468 29.556C57.1105 29.3108 57.1105 29.2334 56.9351 28.8721C56.8298 28.6528 56.6895 28.4463 56.6076 28.4205C56.5257 28.3947 56.0228 28.227 55.4731 28.0335C54.514 27.7109 54.1748 27.5044 53.8473 27.0399C53.7186 26.8464 53.7186 26.769 53.8356 26.6142C54.0578 26.3174 54.1631 26.3819 54.3502 26.8593C54.5491 27.3883 54.6309 27.4528 55.3912 27.5948C55.7304 27.6464 56.1632 27.7367 56.362 27.7883C56.6895 27.8528 56.7363 27.8141 56.8766 27.4657C57.0989 26.8464 57.2275 26.9883 57.2275 27.8528C57.2275 28.5238 57.2509 28.627 57.438 28.5883C57.6135 28.5496 57.6369 28.3302 57.672 26.5754C57.6954 24.8594 57.672 24.6013 57.5082 24.5239C57.403 24.4852 57.2743 24.5239 57.2041 24.6271C57.1222 24.7691 57.0755 24.7691 57.0287 24.64C56.9234 24.3562 56.3386 24.111 55.8123 24.111C55.5316 24.1239 55.1339 24.0852 54.935 24.0336C54.5491 23.9433 53.8941 24.2917 53.2742 24.9239C52.9584 25.2336 52.432 26.3819 52.432 26.7561C52.432 27.1948 53.4028 28.2657 54.1748 28.6657C54.9467 29.0786 55.1105 29.427 54.5959 29.5689C54.3502 29.6334 54.3034 29.7237 54.3034 30.0979C54.3034 30.4592 54.2567 30.5495 54.0812 30.5495C53.9643 30.5495 53.8005 30.6398 53.7186 30.743C53.2859 31.3237 54.245 31.5688 54.7245 31.0011ZM17.5538 30.4721C17.7409 30.4076 17.6825 27.169 17.4602 25.1561L17.3082 23.8272L16.8169 23.9175C16.5011 23.9691 16.2906 23.9433 16.2438 23.853C16.1152 23.6465 15.7409 23.6852 15.659 23.9175C15.5303 24.2787 15.5888 26.9109 15.7292 27.2593C15.8345 27.5173 15.8228 27.6593 15.7058 27.8915C15.6122 28.098 15.5888 28.4076 15.6356 28.7689C15.9046 30.7818 15.8578 30.7043 16.7468 30.6011C17.1093 30.5624 17.4719 30.5108 17.5538 30.4721ZM38.8527 30.0334C39.0866 30.0334 39.3556 29.8915 39.6246 29.6334C40.0106 29.2463 40.034 29.1947 40.034 28.3947C40.034 27.8528 39.9638 27.427 39.8469 27.1948C39.6597 26.8593 39.6597 26.8206 39.917 26.4206C40.0925 26.1497 40.2095 25.7497 40.2445 25.2981C40.303 24.5497 40.4083 24.4594 40.7358 24.911L40.958 25.1948L41.4025 24.9368C41.8235 24.6916 41.8469 24.64 41.882 24.0078C41.9054 23.582 41.8469 23.1949 41.7417 22.9498C41.6364 22.7304 41.5545 22.4207 41.5545 22.253C41.5545 22.0853 41.4727 21.8401 41.3791 21.6982C41.2855 21.5692 41.2036 21.324 41.2036 21.1692C41.2036 21.0143 41.1452 20.8466 41.0633 20.795C40.8177 20.6273 40.6188 21.1563 40.6188 21.995C40.6188 22.6272 40.5837 22.8078 40.4434 22.8078C40.3264 22.8078 40.2679 22.6788 40.2679 22.3691C40.2679 22.0466 40.1978 21.8788 39.9872 21.724C39.8235 21.6208 39.4843 21.2982 39.2153 21.0272C38.9463 20.7563 38.5486 20.4208 38.3381 20.3047L37.9521 20.0724L37.0398 20.8724C36.5251 21.3111 36.0456 21.8143 35.9637 21.9821C35.8818 22.1627 35.7883 22.8078 35.7532 23.4401C35.7064 24.3691 35.7298 24.6013 35.8818 24.7432C36.0222 24.8723 36.0456 25.0529 35.9871 25.5174C35.9403 25.9432 35.9637 26.24 36.1041 26.5238C36.338 27.027 36.3497 27.5044 36.1158 27.7109C36.0222 27.8012 35.9403 28.0851 35.9403 28.3431C35.9403 28.7173 36.0456 28.9496 36.4667 29.4786C36.9462 30.085 37.0515 30.1495 37.5544 30.1882C37.8585 30.214 38.1977 30.1882 38.303 30.1366C38.4082 30.0721 38.6539 30.0334 38.8527 30.0334ZM30.1858 29.6205C30.1507 29.2979 29.7881 29.156 29.6009 29.3624C29.4021 29.5818 29.5893 29.9044 29.9167 29.9044C30.1741 29.9044 30.2208 29.8528 30.1858 29.6205ZM28.8056 28.7302C28.8056 28.6657 29.0746 28.6528 29.4255 28.6915C29.9869 28.7689 30.0688 28.7431 30.5016 28.356C30.7589 28.1238 31.215 27.8012 31.5191 27.6335C32.3379 27.169 32.6771 26.2142 32.256 25.5948C32.1624 25.4529 32.0806 25.169 32.0806 24.9755C32.0806 24.4078 31.6478 23.582 30.9928 22.9111C30.3261 22.2014 29.8934 22.0337 28.7822 22.0337C28.0103 22.0337 27.9869 22.0208 27.7997 21.6208C27.6828 21.3885 27.5307 20.9627 27.4605 20.6789C27.2734 19.995 26.8991 19.9434 26.8406 20.6015C26.8172 20.8466 26.7237 21.1692 26.6301 21.324C26.443 21.6466 26.5599 21.8401 26.981 21.9175C27.3085 21.995 27.3436 22.253 27.0512 22.3562C26.9108 22.4078 26.5482 22.7175 26.2441 23.053C25.4956 23.9046 25.1447 25.3368 25.5891 25.711C25.6944 25.8013 25.7295 26.0464 25.6944 26.4206C25.6242 27.1174 25.788 27.4915 26.3962 28.0206L26.8406 28.4205L27.1564 28.0077C27.3319 27.7754 27.5541 27.5819 27.6594 27.5819C27.8816 27.5819 28.2208 28.1238 28.2208 28.4593C28.2208 28.5883 28.2793 28.756 28.3494 28.8334C28.4898 28.9883 28.8056 28.9237 28.8056 28.7302ZM34.2911 28.0206C34.4549 27.7883 34.5017 27.6206 34.4315 27.4141C34.2911 27.0141 34.0455 27.0012 33.297 27.3754C32.3028 27.8786 32.4899 28.2141 33.8584 28.3431C33.9637 28.3431 34.1625 28.2012 34.2911 28.0206ZM35.7181 27.4657C35.9754 27.2464 35.9754 27.1948 35.8234 26.8722C35.7298 26.6916 35.566 26.4851 35.4608 26.4206C35.1801 26.2529 34.7707 26.6142 34.7707 27.0528C34.7707 27.7109 35.2268 27.9044 35.7181 27.4657ZM34.6069 26.3174C34.8526 26.1109 35.1567 25.9174 35.2736 25.8658C35.5543 25.7497 35.5543 25.0013 35.2619 25.0013C35.145 25.0013 34.9929 25.0658 34.911 25.1561C34.8175 25.2594 34.7356 25.2594 34.6069 25.1303C34.3379 24.8981 34.104 25.0529 33.835 25.6593C33.566 26.2916 33.5426 26.498 33.7531 26.5883C34.0221 26.7174 34.1508 26.6787 34.6069 26.3174ZM41.882 26.1884C41.9288 25.6981 41.6364 25.4916 41.3557 25.8142C41.1802 25.9948 41.1802 26.0464 41.3674 26.3561C41.6247 26.7819 41.8352 26.7174 41.882 26.1884ZM34.4783 24.4852C34.5134 24.4207 34.6771 24.3562 34.8292 24.3562C35.3438 24.3562 35.4491 24.0852 35.414 22.8465C35.3906 22.2272 35.3789 21.5176 35.3672 21.2853C35.3438 20.3821 34.5952 20.7563 34.1157 21.8917C33.9052 22.4207 33.835 22.7949 33.835 23.5175C33.835 24.0207 33.8701 24.4852 33.9169 24.5239C34.0338 24.6529 34.3964 24.6271 34.4783 24.4852ZM58.9352 22.7949C58.9702 22.7175 58.9352 22.5756 58.8533 22.4724C58.6428 22.253 58.3387 22.4466 58.4322 22.7304C58.5141 22.9627 58.8182 23.0014 58.9352 22.7949ZM60.9703 21.9304C60.9703 21.453 60.865 21.066 60.5259 20.3434L60.0814 19.3886L59.5551 19.3499C59.1574 19.3241 58.9469 19.3757 58.7129 19.5821C58.2217 20.0079 58.3036 20.395 59.0287 21.2079C59.3796 21.5821 59.6954 22.0208 59.7422 22.1498C59.8124 22.3949 60.0463 22.4853 60.713 22.5369C60.9469 22.5498 60.9703 22.4982 60.9703 21.9304ZM57.8825 20.7692C57.8825 20.2402 57.9527 19.7628 58.0229 19.6854C58.1983 19.4918 58.21 18.9757 58.0462 18.8725C57.9761 18.8209 57.9293 17.9306 57.9293 16.6145C57.9293 14.3307 57.8942 14.0339 57.6252 14.0339C57.3913 14.0339 57.2977 14.3565 57.4614 14.6662C57.555 14.8597 57.555 15.0146 57.4614 15.2081C57.3562 15.4145 57.3562 15.5694 57.4731 15.8532C57.5784 16.15 57.5784 16.7564 57.4614 18.666C57.3094 21.2724 57.3445 21.8143 57.672 21.7498C57.8357 21.7111 57.8708 21.5434 57.8825 20.7692ZM36.8175 20.5756C37.3322 20.0595 37.3907 19.9692 37.262 19.737C37.1333 19.5047 37.1567 19.466 37.4608 19.3499C37.8468 19.1951 38.0924 19.3757 39.2387 20.5886C39.5779 20.9627 39.9521 21.2595 40.0808 21.2595C40.2679 21.2595 40.2913 21.1821 40.2328 20.7434C40.1627 20.1757 39.7884 19.7241 39.379 19.7112C39.0749 19.7112 38.7942 19.3886 38.9813 19.2596C39.1802 19.1176 39.7416 19.3112 40.3264 19.7241C40.958 20.1757 41.2036 20.137 41.2036 19.6079C41.2036 19.4015 41.2738 19.1563 41.3674 19.0789C41.5194 18.937 41.6715 18.0596 41.7066 17.0661C41.73 16.6919 41.6832 16.55 41.5545 16.55C41.3908 16.55 41.2855 16.808 41.1452 17.5564C41.0984 17.7886 41.0048 17.9048 40.8527 17.9048C40.6656 17.9048 40.6188 17.8145 40.6188 17.4661C40.6188 17.2209 40.6656 16.9887 40.7241 16.95C40.8527 16.8596 40.958 16.0984 40.8878 15.879C40.7826 15.5823 40.4551 15.7113 39.9521 16.2403C39.3907 16.8209 39.379 16.8467 39.648 17.0661C39.9054 17.2725 39.7767 17.6209 39.3907 17.7241C39.1802 17.7886 38.958 17.7112 38.6305 17.4661C38.0924 17.0661 38.0456 16.9113 38.455 16.7435C38.6305 16.6661 38.7474 16.5242 38.7474 16.3564C38.7474 16.1887 38.6305 16.0468 38.455 15.9694C38.2913 15.9048 38.1626 15.7629 38.1626 15.6597C38.1626 15.4791 37.917 15.3242 37.6363 15.3242C37.4024 15.3242 36.6421 16.2532 36.6421 16.55C36.6421 16.679 36.7824 16.9242 36.9696 17.079C37.3439 17.4145 37.2503 17.5822 36.6187 17.6983C36.1509 17.7887 36.0924 17.7112 36.2795 17.1951C36.3848 16.8984 36.1976 16.3564 35.9988 16.3564C35.9169 16.3564 35.7883 16.2661 35.7064 16.1629C35.5309 15.9306 35.0748 15.9048 34.9227 16.1371C34.8643 16.2145 34.7473 16.5242 34.6654 16.7951C34.5134 17.2983 34.5134 17.3112 34.876 17.6338C35.1684 17.9048 35.2152 18.008 35.0982 18.137C34.8175 18.4467 34.4315 18.3177 34.2561 17.8532C34.0923 17.4016 33.7765 17.1306 33.4373 17.1306C33.1566 17.1306 33.2151 17.4919 33.566 17.9564C33.9403 18.4467 34.4198 19.5434 34.4198 19.9176C34.4198 20.4466 35.0748 20.5111 35.5426 20.0337C35.8584 19.7112 36.0573 19.7112 36.0573 20.0208C36.0573 20.1241 35.9754 20.266 35.8818 20.3563C35.7064 20.5111 35.6362 21.1434 35.7766 21.2982C35.8818 21.4143 36.1509 21.2337 36.8175 20.5756Z" fill="black"/>
<path d="M35.9169 58.6647C34.8994 58.5356 34.4432 58.2518 34.3379 57.6454C34.3028 57.4002 34.2561 54.8842 34.2561 52.0584C34.2444 47.6328 34.2678 46.9102 34.4198 46.807C34.7005 46.6135 36.9696 46.6651 37.8 46.8715C40.5603 47.5941 42.3148 50.3166 42.1043 53.5165C42.0107 54.7551 41.6949 55.8906 41.2036 56.6647C40.2796 58.1615 38.1743 58.9614 35.9169 58.6647Z" fill="black"/>
<path d="M14.1385 38.2783L13.8344 37.8783V33.9945C13.8344 31.3237 13.8812 29.9818 13.9747 29.6979C14.0917 29.3237 14.08 29.2334 13.9046 29.0141C13.4367 28.4463 14.0215 27.7367 14.5946 28.1496C14.9338 28.3947 14.9689 28.7431 14.6999 29.1947C14.5362 29.4657 14.5362 29.5431 14.6999 29.8657C14.9572 30.4334 15.2379 36.7944 15.0157 37.0396C14.9455 37.117 14.8871 37.4267 14.8871 37.7234C14.8871 38.7686 14.6414 38.9492 14.1385 38.2783Z" fill="black"/>
<path d="M61.6487 36.9106C61.3563 36.0977 61.2627 30.3043 61.5434 29.9947C61.7306 29.7882 61.7072 29.4528 61.4966 29.2592C61.2393 29.027 61.2861 28.5754 61.5902 28.2528C61.9177 27.9044 62.1165 27.9044 62.4674 28.2141C62.7598 28.498 62.8183 29.1044 62.5493 29.2076C62.292 29.3237 62.3037 30.7689 62.5727 31.0914C62.8534 31.4398 62.8534 35.2332 62.5727 36.1235C62.1984 37.2977 61.8943 37.5557 61.6487 36.9106Z" fill="black"/>
<path d="M12.9923 33.5817C12.8168 32.5236 12.7583 30.4592 12.887 30.3689C13.1092 30.214 13.1443 30.5495 13.1092 32.3688C13.0858 33.5429 13.0507 33.93 12.9923 33.5817Z" fill="black"/>
<path d="M13.2847 27.0399C13.1092 26.8206 13.0507 26.64 13.0975 26.3819C13.156 26.0722 13.2145 26.0206 13.5303 26.0593C13.8578 26.098 13.8929 26.1367 13.928 26.6012C13.9514 26.9109 13.9046 27.1432 13.811 27.2077C13.5888 27.3625 13.5537 27.3496 13.2847 27.0399Z" fill="black"/>
<path d="M62.3973 27.169C62.3154 27.0786 62.2569 26.8335 62.2569 26.6012C62.2569 26.2658 62.3154 26.1755 62.5376 26.1367C62.7715 26.0851 62.83 26.1367 62.8885 26.4593C63.0055 27.1045 62.9704 27.3238 62.7481 27.3238C62.6312 27.3238 62.4791 27.2593 62.3973 27.169Z" fill="black"/>
<path d="M20.5247 22.5885C20.3375 22.5111 20.4662 22.2917 20.7118 22.2917C20.8288 22.2917 21.1329 22.1756 21.3785 22.0337C21.8229 21.7885 21.858 21.7885 21.9867 21.995C22.1738 22.2659 22.1738 22.4207 21.9984 22.4853C21.706 22.5756 20.6767 22.653 20.5247 22.5885Z" fill="black"/>
<path d="M14.1853 21.4788C14.1853 21.4272 14.2788 21.1692 14.3841 20.8982C14.5596 20.4595 14.583 20.4466 14.6297 20.7305C14.6531 20.924 14.583 21.1305 14.4309 21.3111C14.2905 21.453 14.1853 21.5305 14.1853 21.4788Z" fill="black"/>
<path d="M54.2567 20.0208C54.2216 19.4015 54.2099 18.8596 54.245 18.8209C54.3736 18.6918 54.5257 19.1176 54.6076 19.7886C54.6894 20.5627 54.6426 21.0272 54.4672 21.0918C54.3853 21.1176 54.3151 20.7434 54.2567 20.0208Z" fill="black"/>
<path d="M15.004 20.8208C15.004 20.7305 15.0859 20.4337 15.1795 20.1886C15.273 19.9305 15.3549 19.4531 15.3549 19.1176C15.3549 18.6015 15.3783 18.537 15.5654 18.6144C15.6707 18.6789 15.9397 18.7435 16.1386 18.7822C16.4777 18.8338 16.5128 18.8725 16.4894 19.2209C16.4661 19.5434 16.3842 19.6467 16.0684 19.7628C15.6707 19.9047 15.6122 19.9821 15.3666 20.6531C15.2379 21.0143 15.004 21.1305 15.004 20.8208Z" fill="black"/>
<path d="M20.127 17.4274C20.1387 15.7371 20.1738 14.292 20.2089 14.2017C20.2323 14.1243 20.3726 14.0339 20.5247 14.0081C20.7703 13.9694 20.8522 13.8146 21.0393 13.0404C21.0627 12.9243 21.32 12.8727 21.7762 12.8727C22.2557 12.8727 22.4779 12.8211 22.5247 12.692C22.6183 12.4211 22.5013 12.3566 21.858 12.3437C21.5305 12.3437 21.1563 12.2921 21.0276 12.2405C20.8989 12.1759 20.6767 12.1888 20.5247 12.2663C20.3375 12.3695 20.2206 12.3566 20.127 12.2534C19.7527 11.8405 20.1972 11.8018 25.2499 11.8147C28.057 11.8147 30.3612 11.763 30.525 11.6985C30.7121 11.6211 30.794 11.505 30.7706 11.3502C30.7355 11.1437 30.5483 11.1308 28.4781 11.1695C26.3611 11.1953 26.2207 11.1824 26.2558 10.976C26.2909 10.7695 26.5365 10.7308 28.9226 10.6534C30.3729 10.6147 31.9636 10.5244 32.4548 10.4857C33.3321 10.3954 33.7063 10.2018 33.5426 9.90505C33.4958 9.81473 31.4841 9.77602 27.367 9.77602C21.8697 9.77602 21.2849 9.75021 21.4487 9.58248C21.6124 9.40184 22.3961 9.37603 27.9869 9.38894C31.4724 9.38894 34.373 9.42764 34.4315 9.46635C34.5953 9.56958 34.9695 9.28571 35.0397 9.01476C35.145 8.55025 34.911 8.48574 32.9812 8.48574C30.9577 8.48574 30.8875 8.47284 30.1273 7.69867C29.4372 7.00192 29.1331 7.02773 28.3728 7.8406L27.7646 8.48574H25.3084C23.051 8.48574 22.4896 8.40832 23.051 8.16317C23.1563 8.12446 24.2207 8.08575 25.4137 8.09866L27.5892 8.11156L27.9284 7.75028C28.712 6.95031 28.8758 6.82128 29.2501 6.74387C29.5893 6.67935 29.7062 6.74386 30.2676 7.33739C31.0045 8.11156 31.2735 8.18898 32.7589 8.12446C33.5777 8.08575 33.835 8.03414 33.835 7.89221C33.835 7.78899 33.6128 7.65996 33.3087 7.56964C32.373 7.31159 32.4431 6.9116 33.3905 7.07934C33.9987 7.19546 34.0221 7.18256 34.3262 6.76967C34.5017 6.55032 34.6537 6.29227 34.6537 6.21485C34.6537 6.13743 34.759 5.91809 34.8994 5.72455C35.0865 5.45359 35.2385 5.38907 35.6362 5.38907C36.0807 5.38907 36.221 5.31166 36.8526 4.66652C37.2503 4.26653 37.5778 3.87945 37.5778 3.78913C37.5778 3.51817 37.1801 3.1956 36.8526 3.1956C36.6889 3.1956 36.49 3.10528 36.4082 3.00206C36.2795 2.83432 36.338 2.80852 36.8643 2.80852C37.3322 2.80852 37.4842 2.86013 37.6012 3.06657C37.7883 3.40204 38.1275 3.40204 38.2211 3.06657C38.2913 2.83432 38.3965 2.80852 39.1802 2.80852C40.0691 2.80852 40.0691 2.80852 39.8586 3.06657C39.7416 3.2085 39.4375 3.36334 39.1919 3.40204C38.5486 3.51817 38.5018 3.87945 38.9697 4.93748C39.2738 5.62132 39.4024 5.77616 39.6948 5.84067C39.9989 5.91809 40.1159 5.87938 40.3498 5.58261C40.7007 5.18263 40.7709 5.23424 40.9697 6.09873C41.2504 7.31159 41.6364 7.63416 42.1393 7.04063C42.4434 6.66645 42.4317 6.48581 42.0809 6.13743C41.7417 5.81486 41.7066 5.44068 41.9756 5.02779C42.3382 4.44717 41.9405 4.15041 41.3674 4.56329C41.1569 4.73103 41.0399 4.74393 40.9463 4.64071C40.8528 4.53749 40.9112 4.43427 41.1919 4.26653C41.3908 4.1375 41.6481 3.81493 41.7534 3.54398C41.9405 3.09238 41.9756 3.06657 42.3616 3.14399C42.5955 3.1956 42.8177 3.26011 42.8762 3.28592C43.0517 3.40204 42.9464 4.55039 42.7125 5.10521C42.4785 5.62132 42.4668 5.73745 42.5955 6.36968C42.7242 6.98902 42.7242 7.11805 42.5487 7.41481C42.3499 7.73738 42.3499 7.76319 42.5604 7.94382C42.8645 8.18898 44.2798 8.08576 44.8295 7.77609C45.0517 7.64706 45.4962 7.28578 45.8237 6.98902C46.1395 6.67935 46.467 6.4213 46.5371 6.4213C46.619 6.4213 46.9348 6.64064 47.2506 6.9245C47.5664 7.19546 47.9758 7.45352 48.1629 7.49223C48.9232 7.64706 50.2215 7.8406 51.4963 7.96963C52.4203 8.05995 52.8999 8.17607 53.0169 8.3051C53.1689 8.48574 53.0753 8.49864 52.0812 8.42123C51.473 8.38252 50.5256 8.318 49.9758 8.2922C47.6951 8.16317 47.543 8.13737 46.9816 7.50513C46.6892 7.19546 46.4202 6.93741 46.3734 6.93741C46.3266 6.93741 46.1395 7.11805 45.9523 7.33739C45.7652 7.55674 45.2856 7.90512 44.8997 8.11156C44.2213 8.48574 44.1277 8.49864 42.9581 8.45994L41.73 8.40832L41.6949 8.04705C41.6598 7.77609 41.5545 7.64706 41.227 7.49223C40.8528 7.32449 40.7709 7.32449 40.42 7.50513C39.9755 7.73738 39.9521 7.8406 40.2679 8.16317C40.3966 8.2922 40.5019 8.47284 40.5019 8.57606C40.5019 8.67928 40.6539 8.93734 40.8411 9.14378C41.1452 9.46635 41.2738 9.51796 41.8352 9.51796C42.4084 9.51796 42.4902 9.54377 42.4902 9.77602C42.4902 9.93085 42.6657 10.1631 42.9464 10.3566C43.3908 10.6921 43.4376 10.6921 44.8412 10.6147C47.2389 10.4857 50.3501 10.4986 50.9349 10.6405C51.3443 10.7308 51.5782 10.7179 51.8589 10.5889C52.0929 10.4857 52.7245 10.4212 53.6134 10.4212C54.7713 10.4212 55.0286 10.4599 55.0871 10.6276C55.1222 10.7308 55.1105 10.8728 55.052 10.9373C54.9935 11.0018 52.8297 11.0663 50.1981 11.0663C47.5898 11.0792 45.3792 11.1437 45.2856 11.2082C45.157 11.2856 45.157 11.376 45.2505 11.5437C45.3675 11.763 45.6482 11.776 49.3208 11.7372L53.2742 11.6985L53.1923 12.0985C53.1221 12.4856 53.1221 12.4856 53.59 12.4856C54.1163 12.4856 54.3268 12.2663 54.0344 12.034C53.7186 11.7889 53.7888 11.5953 54.1631 11.6985C54.4321 11.776 54.4906 11.8792 54.5491 12.3695C54.6426 13.1178 54.9701 13.8017 55.2275 13.7501C55.5082 13.6856 55.5549 12.5372 55.2976 12.2275C55.1807 12.0856 55.1339 11.9308 55.169 11.8534C55.2859 11.6469 55.5549 11.8276 55.6836 12.2017C55.8591 12.692 55.9526 17.9306 55.7889 17.8661C55.7187 17.8403 55.6134 17.6596 55.5666 17.4403C55.2859 16.3822 55.1573 16.0984 54.6192 15.2726C53.9993 14.3565 53.1221 13.492 52.5022 13.2082C52.3034 13.1178 51.7186 12.963 51.1922 12.8727C49.894 12.6404 48.6074 12.8469 47.8939 13.3888C47.6249 13.6081 47.3559 13.7759 47.3091 13.7759C47.2623 13.7759 47.157 13.892 47.0752 14.0339C46.8646 14.4081 46.7594 14.3565 46.6307 13.8146C46.467 13.0791 45.6716 12.4856 42.5019 10.7179C40.5019 9.59538 39.8352 8.96314 39.3556 7.67287C39.1568 7.16966 38.958 6.57613 38.9112 6.35678C38.7708 5.69874 38.1743 4.48588 37.9872 4.48588C37.6597 4.48588 37.3556 4.98909 37.1099 5.93099C36.7591 7.22127 36.1392 8.47284 35.4959 9.2212C34.9227 9.86634 33.7999 10.5502 32.0455 11.3115C31.5542 11.5308 30.946 11.8534 30.7004 12.034C30.4665 12.2146 30.2092 12.3566 30.139 12.3566C29.9869 12.3566 29.2501 13.2211 29.0395 13.634C28.9109 13.9178 28.5249 13.9952 28.3962 13.7759C28.2793 13.5565 26.8172 13.1307 26.1856 13.1307C25.4371 13.1307 24.0803 13.5307 23.2148 14.021C21.6007 14.9371 20.8405 16.3951 20.5714 19.1305C20.4779 20.0982 20.396 20.4208 20.2673 20.4595C20.1153 20.4853 20.0919 20.0982 20.127 17.4274ZM35.8117 8.11156C36.069 7.93092 35.8468 7.71157 35.414 7.71157C35.1918 7.71157 34.9812 7.77609 34.9344 7.8535C34.8409 8.03414 35.0982 8.22768 35.414 8.22768C35.5427 8.22768 35.7181 8.17607 35.8117 8.11156Z" fill="black"/>
<path d="M21.4954 11.234C21.32 11.1308 21.0627 11.0792 20.9106 11.1179C20.3609 11.2727 20.0217 10.834 20.4779 10.576C20.8054 10.3825 22.3844 10.4083 23.0744 10.6147C23.4253 10.7179 23.94 10.8082 24.209 10.8082C24.478 10.8082 24.7353 10.8728 24.7704 10.9373C24.8055 11.0147 25.1096 11.0663 25.4254 11.0663C25.8464 11.0663 25.9985 11.1179 25.9634 11.234C25.8932 11.4792 21.9282 11.4792 21.4954 11.234Z" fill="black"/>
<path d="M45.0634 9.60828C45.0634 9.1954 45.6248 9.14378 49.7653 9.13088C53.6134 9.11798 54.3034 9.15669 54.3034 9.37603C54.3034 9.42764 52.4788 9.47926 50.2449 9.49216C47.9758 9.51796 46.1044 9.58248 45.9874 9.64699C45.6716 9.84053 45.0634 9.80183 45.0634 9.60828Z" fill="black"/>
<path d="M27.9869 5.71164C27.4371 5.20844 27.5541 5.01489 28.2559 5.27295C28.6302 5.41488 28.7354 5.41488 28.7822 5.28585C28.8758 4.95038 29.3787 4.42136 29.7296 4.26653C30.1624 4.0988 30.1858 4.16331 29.8349 4.5762C29.6711 4.78264 29.5776 5.0278 29.5893 5.32456C29.601 5.84067 29.484 5.9697 28.8992 6.07292C28.5249 6.13744 28.3962 6.08582 27.9869 5.71164Z" fill="black"/>
<path d="M32.9929 4.55039C32.9695 3.87945 32.9929 3.32463 33.0513 3.32463C33.0981 3.32463 33.1683 3.31173 33.2151 3.29882C33.2502 3.27302 33.297 3.37624 33.3087 3.51817C33.3438 3.98267 33.6595 4.80845 33.8584 4.97618C34.104 5.18263 34.1274 5.38907 33.9052 5.38907C33.8233 5.38907 33.6829 5.47939 33.6011 5.58261C33.5192 5.68584 33.3554 5.77616 33.2385 5.77616C33.063 5.77616 33.028 5.63423 32.9929 4.55039Z" fill="black"/>
<path d="M45.9289 5.20843C45.6482 5.0665 45.543 4.91167 45.4494 4.49878C45.2973 3.84074 45.5079 3.77622 45.8821 4.35685C46.1044 4.69232 46.1979 4.73103 46.8529 4.76974L47.5781 4.80845L47.157 5.10521C46.6658 5.42778 46.4436 5.45359 45.9289 5.20843Z" fill="black"/>
<path d="M34.6186 4.73103C34.2911 4.52459 34.5953 4.22782 35.1333 4.22782C35.3789 4.22782 35.7181 4.16331 35.8818 4.07299C36.1976 3.91816 36.4667 4.06009 36.3146 4.30524C36.2444 4.42136 35.0982 4.87296 34.8994 4.87296C34.8643 4.87296 34.7356 4.80845 34.6186 4.73103Z" fill="black"/>
<path d="M32.3145 34.6913C32.3145 34.4719 32.4548 34.1623 32.5601 34.1623C32.6186 34.1623 32.6654 34.3042 32.6654 34.4849C32.6654 34.6913 32.5952 34.8074 32.4899 34.8074C32.3964 34.8074 32.3145 34.7558 32.3145 34.6913Z" fill="black"/>
<path d="M33.8467 34.3042C33.7414 34.2268 33.6595 33.8139 33.6011 33.1043C33.566 32.5236 33.4607 31.9043 33.3788 31.7366C33.297 31.5688 33.2619 31.3495 33.297 31.2334C33.4139 30.8979 33.6829 31.2592 33.7648 31.8785C33.8116 32.1753 33.9286 32.8204 34.0338 33.2978C34.2327 34.1881 34.1625 34.5236 33.8467 34.3042Z" fill="black"/>
<path d="M32.0806 33.1946C31.9051 32.9623 32.0104 32.6139 32.256 32.6139C32.3613 32.6139 32.4314 32.7301 32.4314 32.9236C32.4314 33.3236 32.2677 33.4397 32.0806 33.1946Z" fill="black"/>
<path d="M33.835 29.8269C33.835 29.0657 34.1157 29.1173 34.1625 29.8786C34.1859 30.3043 34.1625 30.4205 34.0221 30.4205C33.8818 30.4205 33.835 30.2785 33.835 29.8269Z" fill="black"/>
<path d="M21.7294 28.2399C21.6826 28.1496 21.6943 27.9431 21.7645 27.8012C21.8229 27.6464 21.9399 27.3496 22.0218 27.1303C22.1387 26.7948 22.1738 26.769 22.2791 26.9754C22.4194 27.2722 22.3259 27.7109 22.0452 28.098C21.8814 28.3173 21.7995 28.356 21.7294 28.2399Z" fill="black"/>
<path d="M22.8405 26.64C22.8405 26.369 22.7469 26.1109 22.6066 25.969C22.361 25.7239 22.2908 25.3884 22.4779 25.3884C22.5364 25.3884 22.7235 25.569 22.8873 25.7884C23.2382 26.24 23.3201 27.0658 23.016 27.0658C22.899 27.0658 22.8405 26.9367 22.8405 26.64Z" fill="black"/>
<path d="M21.32 25.5819C21.32 25.04 21.3551 24.8723 21.4954 24.8723C21.6358 24.8723 21.6709 25.04 21.6709 25.5819C21.6709 26.1238 21.6358 26.2916 21.4954 26.2916C21.3551 26.2916 21.32 26.1238 21.32 25.5819Z" fill="black"/>
<path d="M56.1398 29.427C56.093 29.3883 56.0579 29.2721 56.0579 29.1689C56.0579 28.9754 56.362 28.9367 56.4556 29.1173C56.5374 29.2592 56.245 29.5431 56.1398 29.427Z" fill="black"/>
<path d="M55.0169 26.5883C54.7479 26.24 54.6543 25.969 54.6543 25.6206C54.6543 24.9755 54.8649 24.9884 54.9584 25.6464C55.0169 26.0593 55.1105 26.2142 55.3795 26.369C55.5783 26.4851 55.707 26.6529 55.6836 26.769C55.6134 27.1432 55.3912 27.0787 55.0169 26.5883Z" fill="black"/>
<path d="M56.7597 26.3561C56.6076 26.0464 56.4088 25.7497 56.3269 25.7239C56.245 25.6852 56.1749 25.5303 56.1749 25.3884C56.1749 25.1819 56.245 25.1303 56.5842 25.1303C56.8064 25.1303 56.9936 25.0787 56.9936 25.0013C56.9936 24.9368 57.0521 24.8723 57.1106 24.8723C57.1807 24.8723 57.2275 25.2981 57.2275 25.9045C57.2275 26.4722 57.1924 26.9367 57.1339 26.9367C57.0872 26.9367 56.9234 26.6787 56.7597 26.3561Z" fill="black"/>
<path d="M38.5603 27.827C38.5252 27.7625 38.6188 27.6593 38.7708 27.5819C38.9229 27.5173 39.1568 27.3625 39.3088 27.2464C39.6363 26.9754 39.648 27.2206 39.3205 27.569C39.0281 27.8657 38.6539 27.9948 38.5603 27.827Z" fill="black"/>
<path d="M37.8468 25.8916C37.6948 25.8271 37.5778 25.6852 37.5778 25.5819C37.5778 25.4142 37.6831 25.3884 38.0807 25.4142C38.4082 25.44 38.572 25.5174 38.572 25.6335C38.572 25.8787 38.1626 26.0206 37.8468 25.8916Z" fill="black"/>
<path d="M36.8175 23.3239C36.6889 23.0917 37.1918 22.5885 37.3556 22.7691C37.4258 22.8465 37.4608 23.0143 37.4374 23.1433C37.3907 23.4272 36.9462 23.5433 36.8175 23.3239Z" fill="black"/>
<path d="M38.7123 23.3626C38.5252 23.1562 38.6539 22.9369 38.958 22.9369C39.3556 22.9369 39.4609 23.0272 39.3673 23.2723C39.3088 23.453 38.8527 23.5175 38.7123 23.3626Z" fill="black"/>
<path d="M28.6419 27.5432C28.174 27.1174 28.291 26.7819 28.8758 26.8335C29.4372 26.8851 29.636 27.2077 29.3436 27.569C29.0629 27.9044 29.0512 27.9044 28.6419 27.5432Z" fill="black"/>
<path d="M30.3261 27.4012C30.3261 27.1432 29.6711 26.3303 29.3787 26.2271C29.0512 26.1109 29.098 25.7755 29.4489 25.7755C29.6243 25.7755 29.9401 25.969 30.2092 26.2529C30.5951 26.6271 30.677 26.7948 30.6536 27.1045C30.6185 27.5044 30.3261 27.7625 30.3261 27.4012Z" fill="black"/>
<path d="M26.3494 26.7948C26.3494 26.2013 26.3728 26.1497 26.6067 26.1884C26.7588 26.2142 26.9459 26.3819 27.0278 26.5883C27.1681 26.9109 27.1681 26.9883 26.981 27.2077C26.8757 27.3367 26.6886 27.4528 26.5599 27.4528C26.3845 27.4528 26.3494 27.3496 26.3494 26.7948Z" fill="black"/>
<path d="M27.7529 26.1626C27.7529 25.9561 27.8114 25.8916 28.022 25.9303C28.1623 25.9561 28.2793 26.0593 28.2793 26.1626C28.2793 26.2658 28.1623 26.369 28.022 26.3948C27.8114 26.4335 27.7529 26.369 27.7529 26.1626Z" fill="black"/>
<path d="M26.3494 25.4529C26.3494 25.311 26.478 25.2594 26.8172 25.2594C27.1564 25.2594 27.2851 25.311 27.2851 25.4529C27.2851 25.5948 27.1564 25.6464 26.8172 25.6464C26.478 25.6464 26.3494 25.5948 26.3494 25.4529Z" fill="black"/>
<path d="M30.794 25.0529C30.3729 24.6529 30.3495 24.4852 30.7121 24.4852C31.0279 24.4852 31.4957 24.8207 31.4957 25.0529C31.4957 25.3884 31.1565 25.3755 30.794 25.0529Z" fill="black"/>
<path d="M28.2793 23.8401C28.1857 23.6723 28.5132 23.5304 28.7588 23.6336C28.9927 23.7368 28.8641 23.9691 28.5717 23.9691C28.4547 23.9691 28.3144 23.9046 28.2793 23.8401Z" fill="black"/>
<path d="M30.1741 23.8788C29.9986 23.6852 30.1156 23.582 30.4899 23.582C30.7121 23.582 30.9226 23.6336 30.9577 23.6981C31.0747 23.9046 30.3495 24.0723 30.1741 23.8788Z" fill="black"/>
<path d="M26.4664 23.6594C26.4664 23.4143 26.7938 23.2981 27.0629 23.453C27.4137 23.6594 27.3319 23.8401 26.8757 23.8401C26.6067 23.8401 26.4664 23.7755 26.4664 23.6594Z" fill="black"/>
<path d="M27.5658 23.1304C27.519 23.0143 27.5424 22.8594 27.6126 22.782C27.788 22.5885 28.1272 22.7691 28.0804 23.0272C28.0337 23.3239 27.6594 23.4014 27.5658 23.1304Z" fill="black"/>
<path d="M29.2267 23.0788C29.0395 23.0401 28.8641 22.924 28.829 22.8336C28.7939 22.7046 28.9109 22.6788 29.2852 22.7046C29.636 22.7304 29.7998 22.8078 29.7998 22.924C29.7998 23.1562 29.6711 23.182 29.2267 23.0788Z" fill="black"/>
</svg>
